<?xml version="1.0" encoding="utf-8"?>
<!-- Generator: Adobe Illustrator 14.0.0, SVG Export Plug-In . SVG Version: 6.00 Build 43363)  -->
<!DOCTYPE svg PUBLIC "-//W3C//DTD SVG 1.1//EN" "http://www.w3.org/Graphics/SVG/1.1/DTD/svg11.dtd">
<svg version="1.1" id="Layer_1" xmlns="http://www.w3.org/2000/svg" xmlns:xlink="http://www.w3.org/1999/xlink" x="0px" y="0px"
	 width="200px" height="200px" viewBox="0 0 200 200" enable-background="new 0 0 200 200" xml:space="preserve">
<path fill-rule="evenodd" clip-rule="evenodd" fill="#FFFFFF" d="M170.227,127.299c-2.543,0.453-4.824,1.454-6.542,2.779
	c-1.019,0.787-1.538,2.226-2.777,2.779c-2.996-1.741-5.995-3.488-8.992-5.232c1.14-5.205,0.125-9.418-3.76-11.772
	c-3.871-2.341-10.418-0.787-11.936,2.619c-2.397-1.31-4.796-2.619-7.194-3.923c-0.381-1,0.347-2.405,0-4.087
	c-0.423-2.061-1.822-2.933-2.941-4.253c3.297-0.073,5.87-2.372,6.048-5.56c2.89-0.053,5.776-0.108,8.667-0.16
	c0.913,11.187,16.475,11.047,18.308,0.16c1.894-11.235-16.049-13.853-18.308-1.798c-1.526,0.058-3.053,0.11-4.579,0.163
	c-1.363-0.053-2.726-0.105-4.088-0.163c-0.109-0.544-0.22-1.087-0.325-1.635c-0.907-2.049-2.839-3.655-5.723-3.757
	c1.579-1.926,4.098-4.31,2.453-8.016c2.341-1.362,4.687-2.723,7.03-4.086c0.107-0.105,0.218-0.218,0.326-0.324
	c1.909,1.809,3.311,3.341,6.538,3.921c6.396,1.15,13.009-7.056,9.318-12.916c3.104-1.798,6.214-3.598,9.318-5.396
	c2.8,2.683,4.679,4.896,9.483,5.726c10.302,1.771,17.883-10.845,12.752-19.457c-7.826-13.127-28.885-5.083-23.052,12.262
	c-3.104,1.745-6.214,3.484-9.318,5.231c-7.693-7.253-18.405-3.066-15.859,9.319c-2.451,1.362-4.903,2.723-7.354,4.087
	c-2.18-1.713-4.803-3.246-8.176-1.635c1.878-4.604-0.332-5.342-1.798-8.338c1.361-2.394,2.725-4.796,4.087-7.195
	c3.491,0.139,6.612,1.246,9.808-1.144c5.153-3.842,3.655-12.512-1.306-15.365c-10.804-6.215-18.658,11.442-9.811,15.365
	c-1.308,2.452-2.616,4.906-3.924,7.359c-0.738,0.26-1.143-0.106-2.289-0.166c-3.162-0.153-4.483,1.342-5.884,2.943
	c-1.302-3.112-1.756-5.667-5.723-6.05c0-2.885,0-5.774,0-8.665c10.935-0.899,10.826-17.823,0-18.146c0-3.592,0-7.19,0-10.788
	c15.778-2.852,16.222-23.31,0.49-25.997C94.68,4.538,86.731,13.807,89.3,22.503c1.901,6.452,5.494,7.095,11.444,9.484
	c0.749,0.841,0.367,8.882,0.326,10.788c-10.829,0.339-10.931,17.269,0,18.146c0,2.89,0,5.779,0,8.665
	c-0.71,0.166-1.417,0.329-2.125,0.494c-1.844,0.862-3.303,2.943-3.433,5.556c-2.395-1.995-3.697-3.167-8.012-2.612
	c-1.416-2.454-2.834-4.907-4.248-7.36c8.978-6.513,0.095-21.59-10.3-15.204c-6.582,4.045-4.52,14.576,2.45,16.678
	c2.402,0.725,4.444-0.169,6.539-0.495c1.363,2.399,2.725,4.801,4.088,7.195c-1.593,2.021-3.444,4.73-1.799,8.173
	c0,0.054,0,0.113,0,0.165c-3.61-1.154-5.894-0.149-8.173,1.635c-2.341-1.309-4.687-2.614-7.03-3.923
	c-0.31-0.91,0.297-2.261,0.491-3.598c0.341-2.368-0.997-4.923-1.963-6.21c-2.062-2.757-7.41-4.518-11.442-2.452
	c-1.145,0.925-2.291,1.851-3.434,2.777c-2.943-1.687-5.887-3.379-8.826-5.066c-0.434-2.757,1.921-6.499,0.162-10.793
	c-3.962-9.663-17.858-10.888-23.379-1.793c-5.281,8.696,2.087,21.526,12.917,19.616c2.56-0.452,4.818-1.448,6.537-2.777
	c1.074-0.831,1.651-2.363,2.944-2.944c2.998,1.8,5.996,3.593,8.993,5.391c-5.188,11.124,11.868,17.626,15.695,8.995
	c2.398,1.309,4.795,2.613,7.191,3.921c0.955,2.465-1.247,6.147,2.289,7.85c0.165,0.218,0.327,0.437,0.493,0.655
	c-3.348,0.081-5.596,2.417-6.052,5.392c-2.887,0-5.775,0-8.663,0c-1.059-11.905-20.523-9.936-18.148,2.618
	c1.9,10.03,17.593,9.854,18.148-0.82c2.668,0,5.339,0,8.012,0c1.173,0.149,2.009,5.364,6.703,5.56c0,0.107,0,0.22,0,0.326
	c-2.331,1.039-3.608,4.652-2.455,7.685c-2.505,1.414-5.012,2.836-7.519,4.252c-5.92-8.165-20.633-1.325-15.695,9.153
	c-2.997,1.744-5.995,3.491-8.993,5.232c-0.162,0.052-0.327,0.109-0.489,0.164c-5.688-13.106-31.418-1.905-21.908,13.896
	c7.869,13.074,30.476,3.553,22.89-12.428c3.049-1.792,6.103-3.593,9.153-5.39c1.354,1.096,2.328,2.544,4.087,3.267
	c6.043,2.497,11.495-1.857,12.589-6.54c0.547-2.343-0.341-4.182-0.655-6.045c2.505-1.362,5.016-2.726,7.522-4.087
	c1.133,2.513,5.318,3.112,8.008,1.797c-1.006,3.099-0.619,6.37,1.636,8.011c-1.362,2.507-2.723,5.012-4.087,7.52
	c-2.145-0.427-4.465-1.166-6.868-0.33c-6.653,2.326-8.235,12.606-1.959,16.513c10.381,6.467,19.373-8.87,10.3-15.203
	c1.362-2.395,2.723-4.797,4.087-7.189c0.613-0.448,2.213,0.478,3.759,0.159c2.149-0.441,3.039-1.784,4.415-2.943
	c0.16,3.271,2.414,5.774,5.558,6.051c0,2.889,0,5.774,0,8.663c-10.882,0.96-10.757,17.839,0,18.148c0,3.597,0,7.194,0,10.792
	c-5.096,1.332-8.362,2.673-10.626,6.7c-5.19,9.228,2.187,17.924,10.135,19.293c9.297,1.595,17.035-8.964,13.571-17.658
	c-2.27-5.695-5.457-6.062-11.116-8.335c-0.751-0.841-0.368-8.882-0.327-10.792c10.832-0.154,11.023-17.26,0-18.148
	c0-2.889,0-5.774,0-8.663c3.81-0.261,4.49-2.811,5.723-5.722c0.053-0.11,0.109-0.218,0.161-0.329
	c1.021,2.289,4.645,3.714,7.685,2.454c1.473,2.452,2.943,4.906,4.417,7.359c-1.554,1.634-3.128,2.964-3.763,5.556
	c-1.877,7.674,6.607,13.922,13.407,10.138c7.381-4.107,5.588-15.278-2.615-17.168c-2.025-0.469-3.581,0.207-5.726,0.655
	c-1.361-2.453-2.724-4.907-4.086-7.354c1.722-2.188,3.254-4.796,1.636-8.176c3.799,1.209,6.001,0.048,8.336-1.797
	c2.344,1.303,4.688,2.612,7.03,3.922c0.557,1.675-0.929,5.854,0.328,8.338c2.268,4.483,12.478,7.781,15.367,1.47
	c1.608-0.606,7.32,3.98,9.484,4.742c0.122,0.983-0.555,1.905-0.82,2.942c-0.808,3.155-0.107,7.142,1.147,9.318
	c5.119,8.914,17.917,8.877,23.051,0C188.527,137.672,180.522,125.465,170.227,127.299z M92.405,85.119
	c1.527,2.56,3.052,5.12,4.579,7.685c-0.602,0.655-1.2,1.304-1.799,1.959c-2.562-1.47-5.125-2.944-7.685-4.411
	c-0.271-0.378-0.227-4.301-0.488-5.398C88.875,85.472,90.444,85.614,92.405,85.119z M86.193,91.819
	c2.56,1.363,5.123,2.725,7.683,4.088c0.311,0.792-0.1,1.814-0.327,2.944c-2.887,0.058-5.778,0.11-8.664,0.163
	c-1.054-0.972-2.437-3.521-3.433-4.741C83.693,94.199,85.252,93.204,86.193,91.819z M81.452,105.391
	c1.323-1.512,2.579-2.326,2.943-4.902c2.996,0,5.995,0,8.991,0c0.219,0.708,0.437,1.416,0.655,2.123
	c-0.283,1.423-6.363,4.498-7.848,5.232C85.221,106.491,83.664,105.486,81.452,105.391z M87.012,114.874
	c0.42-1.921,0.705-3.556,0.161-5.556c2.507-1.526,5.014-3.056,7.52-4.582c0.71,0.601,1.419,1.203,2.127,1.799
	c-1.417,2.618-2.834,5.23-4.25,7.85C90.808,114.609,88.834,114.012,87.012,114.874z M96.492,120.27
	c-0.793-1.824-0.705-3.422-2.289-4.417c-0.617-1.825,3.007-6.402,4.087-8.174c0.873,0.165,1.743,0.331,2.615,0.489
	c0.057,3.056,0.11,6.104,0.165,9.158C98.825,118.083,97.899,118.785,96.492,120.27z M98.455,91.984
	c-1.471-2.612-2.945-5.229-4.414-7.843c1.075-1.368,2.222-2.316,2.289-4.742c1.342,1.177,2.183,2.612,4.575,2.777
	c0.057,3.049,0.11,6.105,0.165,9.154C100.199,91.548,99.326,91.766,98.455,91.984z M116.766,84.789
	c-0.218,0.928-0.436,1.858-0.654,2.784c0.163,0.926,0.326,1.852,0.49,2.779c-2.613,1.467-5.233,2.941-7.848,4.411
	c-0.055,0-0.107,0-0.164,0c-0.598-0.596-1.2-1.197-1.797-1.799c1.471-2.507,2.942-5.014,4.413-7.521
	C112.105,84.773,115.307,85.667,116.766,84.789z M102.706,82.342c2.12-0.665,3.504-1.271,4.579-2.943
	c0.994,2.06,1.429,3.311,2.613,4.902c-1.417,2.506-2.836,5.013-4.251,7.518c-0.995,0.219-1.979-0.213-2.941-0.488
	C102.706,88.334,102.706,85.338,102.706,82.342z M107.447,120.27c-1.294-1.229-2.191-2.623-4.579-2.778
	c-0.054-3.054-0.107-6.104-0.162-9.157c0.707-0.22,1.417-0.438,2.125-0.655c1.298,0.244,4.632,6.241,5.067,7.685
	C108.787,116.773,107.577,117.827,107.447,120.27z M111.372,114.549c-1.474-2.618-2.946-5.235-4.414-7.851
	c0.597-0.654,1.195-1.308,1.796-1.962c2.614,1.473,5.234,2.942,7.848,4.417c-0.261,2.097-0.225,3.955,0.327,5.721
	C115.15,114.038,113.432,114.134,111.372,114.549z M117.747,107.679c-2.672-1.47-5.34-2.942-8.012-4.412
	c0.273-0.925,0.546-1.851,0.816-2.778c2.891,0,5.778,0,8.666,0c0.779,1.597,1.021,3.47,2.616,4.248
	c0.161,0.218,0.327,0.436,0.489,0.654C120.15,105.466,118.694,106.38,117.747,107.679z M119.545,98.851c-3.053,0-6.103,0-9.154,0
	c-0.22-0.709-0.438-1.417-0.655-2.124c0.641-2.215,5.645-3.523,7.358-4.908c1.921,0.672,2.506,2.279,5.229,2.455
	C121.147,95.679,119.778,96.433,119.545,98.851z"/>
</svg>
