<?xml version="1.0" encoding="utf-8"?>
<!-- Generator: Adobe Illustrator 14.0.0, SVG Export Plug-In . SVG Version: 6.00 Build 43363)  -->
<!DOCTYPE svg PUBLIC "-//W3C//DTD SVG 1.1//EN" "http://www.w3.org/Graphics/SVG/1.1/DTD/svg11.dtd">
<svg version="1.1" id="Layer_1" xmlns="http://www.w3.org/2000/svg" xmlns:xlink="http://www.w3.org/1999/xlink" x="0px" y="0px"
	 width="200px" height="200px" viewBox="0 0 200 200" enable-background="new 0 0 200 200" xml:space="preserve">
<g>
	<path fill-rule="evenodd" clip-rule="evenodd" fill="#FFFFFF" d="M79.246,60.946c6.277-0.21,6.904,7.308,2.167,8.667
		c-3.61,1.039-6.634-2.295-5.557-5.651C76.409,62.235,77.659,61.673,79.246,60.946z"/>
	<path fill-rule="evenodd" clip-rule="evenodd" fill="#FFFFFF" d="M119.28,61.228c6.04-0.182,6.37,7.791,1.32,8.859
		c-3.212,0.676-5.973-2.442-5.086-5.562C116.095,62.478,117.424,62.039,119.28,61.228z"/>
	<path fill-rule="evenodd" clip-rule="evenodd" fill="#FFFFFF" d="M137.18,95.429c6.125-0.193,6.447,7.799,1.321,8.857
		c-3.174,0.652-5.946-2.492-4.995-5.654C134.101,96.659,135.418,96.267,137.18,95.429z"/>
	<path fill-rule="evenodd" clip-rule="evenodd" fill="#FFFFFF" d="M62.102,95.804c6.52-0.217,6.725,7.861,1.227,8.859
		c-3.136,0.568-5.853-2.846-4.714-5.937C59.238,97.034,60.474,96.536,62.102,95.804z"/>
	<path fill-rule="evenodd" clip-rule="evenodd" fill="#FFFFFF" d="M175.051,140.839c-2.009-1.099-4.021-2.196-6.028-3.297
		c-0.032-0.062-0.064-0.123-0.094-0.188c2.134-1.194,4.269-2.386,6.405-3.581c0.029-0.062,0.062-0.125,0.094-0.189
		c-0.471-0.876-0.942-1.757-1.414-2.636c-0.564-0.292-7.551,3.604-8.572,4.427c-2.573-1.443-5.149-2.89-7.724-4.333
		c-0.032-0.062-0.064-0.126-0.097-0.188c5.024-3.016,10.052-6.03,15.075-9.046c0.029-0.064,0.062-0.123,0.094-0.188
		c-0.565-0.943-1.133-1.883-1.695-2.828c-5.621,3.331-11.242,6.657-16.863,9.989c-2.726-0.504-4.688-3.115-7.252-3.958
		c-0.064-0.094-0.126-0.188-0.19-0.281c10.206-5.935,20.412-11.872,30.618-17.807c2.079-1.672,3.347-5.75,1.979-8.953
		c-1.587-3.701-6.462-5.27-9.8-7.255c-8.227-4.801-16.456-9.609-24.681-14.41c-0.064,0-0.126,0-0.19,0
		c2.951-1.763,5.905-3.519,8.856-5.276c2.117,0.477,4.166,2.424,5.935,3.484c3.801,2.26,7.601,4.521,11.4,6.781
		c0.029,0,0.062,0,0.091,0c0.598-0.972,1.194-1.944,1.792-2.922c-5.117-3.045-10.238-6.09-15.355-9.135
		c-0.062-0.093-0.126-0.19-0.188-0.287c2.605-1.476,5.211-2.951,7.819-4.427c2.887,1.604,5.776,3.203,8.663,4.807
		c0.536-0.881,1.069-1.762,1.604-2.638c0.029-0.097,0.062-0.19,0.094-0.284c-2.26-1.256-4.521-2.512-6.783-3.771
		c-0.032-0.09-0.062-0.187-0.094-0.281c2.012-1.13,4.02-2.26,6.028-3.39c3.979,2.339,9.468-1.148,6.689-5.75
		c-2.154-3.56-8.411-2.412-8.291,2.641c-1.977,1.159-3.955,2.325-5.935,3.484c0-2.26,0-4.521,0-6.781
		c-0.278-1.159-2.327-0.849-3.391-0.849c-0.064,3.203-0.126,6.406-0.19,9.609c-2.573,1.505-5.146,3.016-7.723,4.521
		c-0.703-0.975-0.067-3.865-0.19-5.276c-0.062-4.146-0.123-8.291-0.188-12.437c-1.13,0-2.26,0-3.391,0
		c0.062,6.596,0.126,13.192,0.188,19.789c-2.887,1.663-5.776,3.329-8.666,4.992c-0.032-9.451-0.062-18.907-0.094-28.358
		c0-4.409,0.343-8.982-1.508-11.494c-3.08-4.181-8.168-3.262-12.152-0.849c-9.293,5.37-18.589,10.742-27.884,16.111
		c-0.029,0-0.062,0-0.094,0c-0.029-3.013-0.064-6.028-0.094-9.044c5.838-3.264,11.682-6.535,17.52-9.799
		c-0.501-1.034-1.005-2.073-1.505-3.109c-5.338,2.919-10.678,5.841-16.015,8.763c0-2.951,0-5.902,0-8.854
		c2.793-1.698,5.589-3.396,8.385-5.091c0.188-0.167,0.067,0.003,0.188-0.284c-0.504-0.908-1.004-1.821-1.505-2.729
		c-2.085,0.381-4.893,2.854-6.783,3.862c-0.097,0-0.19,0-0.284,0c0.029-2.263,0.064-4.523,0.094-6.784
		c0.69-1.051,1.999-1.297,2.544-2.638c1.288-3.186-1.177-5.677-3.674-6.122c-5.077-0.907-6.453,6.467-2.448,8.385
		c0.029,2.325,0.062,4.646,0.094,6.971c-2.231-1.227-4.459-2.45-6.69-3.674c-0.533,0.943-1.068,1.886-1.601,2.822
		c2.731,1.698,5.466,3.396,8.197,5.088c0.029,2.957,0.062,5.908,0.094,8.859c-5.182-2.857-10.364-5.715-15.546-8.575
		c-0.565,0.975-1.13,1.947-1.695,2.919c5.715,3.268,11.433,6.535,17.147,9.802c0.029,3.422,0.062,6.845,0.094,10.268
		c-8.259-4.711-16.518-9.421-24.774-14.132c-2.898-1.728-6.702-5.247-11.4-3.768c-5.654,1.777-5.37,7.486-5.37,14.981
		c0,8.76,0,17.525,0,26.285c-0.064,0.035-0.126,0.064-0.188,0.093c-2.702-1.569-5.401-3.138-8.104-4.708
		c-0.72-1.241-0.187-4.538-0.187-6.412c0.064-4.488,0.125-8.979,0.187-13.471c-1.13-0.032-2.26-0.062-3.39-0.097
		c-0.032,0.035-0.064,0.064-0.094,0.097c-0.064,5.87-0.126,11.743-0.188,17.616c-2.544-1.411-5.088-2.825-7.632-4.239
		c-1.142-1.961,0.31-6.769-0.378-9.421c0.067-0.75-2.342-0.445-3.39-0.375c0.032,2.483,0.062,4.965,0.097,7.442
		c-1.97-0.211-3.926-2.506-5.938-3.203c-0.459-1.054-0.354-2.266-0.943-3.109c-1.718-2.471-5.861-2.348-7.439,0.188
		c-2.629,4.216,2.884,8.988,6.593,5.844c2.009,1.13,4.017,2.26,6.028,3.39c0,0.029,0,0.064,0,0.094
		c-2.26,1.288-4.521,2.576-6.784,3.864c0.504,1.004,1.007,2.009,1.508,3.016c2.983-1.604,5.967-3.203,8.95-4.807
		c2.48,1.411,4.962,2.828,7.442,4.239c0.062,0.094,0.126,0.188,0.188,0.284c-5.118,3.048-10.238,6.092-15.356,9.137
		c-0.029,0.094-0.062,0.188-0.094,0.284c0.503,0.881,1.004,1.759,1.508,2.638c0.094,0.064,0.19,0.123,0.284,0.188
		c5.683-3.422,11.369-6.845,17.048-10.265c2.67,1.473,5.34,2.951,8.01,4.424c0.032,0.064,0.062,0.126,0.091,0.19
		c-7.878,4.584-15.763,9.169-23.645,13.754c-3.446,2.055-8.394,3.648-10.174,7.349c-1.68,3.493,0.313,7.741,2.357,9.327
		c10.394,6.028,20.787,12.06,31.18,18.088c0.032,0.064,0.062,0.129,0.094,0.188c-2.667,1.54-5.337,3.08-8.004,4.62
		c-1.499-0.284-2.852-1.64-4.052-2.354c-4.333-2.544-8.666-5.091-12.999-7.635c-0.568,0.881-1.13,1.762-1.698,2.641
		c-0.029,0.094-0.062,0.188-0.094,0.281c4.992,2.951,9.986,5.902,14.981,8.859c0.059,0.088,0.123,0.184,0.188,0.28
		c-2.512,1.476-5.027,2.951-7.539,4.427c-1.991-0.339-6.611-3.513-8.476-4.619c-0.597,0.978-1.194,1.949-1.792,2.922
		c2.167,1.259,4.333,2.515,6.5,3.771c-2.009,1.162-4.017,2.324-6.028,3.484c-3.932-2.434-8.78,1.958-6.216,6.124
		c2.333,3.795,8.362,1.979,8.195-3.109c1.979-1.159,3.956-2.321,5.935-3.483c0.032,0,0.062,0,0.094,0c0,2.635,0,5.275,0,7.91
		c1.13,0,2.26,0,3.39,0c0.032-3.296,0.064-6.593,0.097-9.89c1.063-0.893,6.59-4.298,7.914-4.521
		c0.062,5.996,0.123,11.998,0.188,17.994c1.066,0.029,2.134,0.059,3.2,0.094c0.097-0.035,0.19-0.064,0.284-0.094
		c-0.093-6.687-0.187-13.38-0.284-20.066c2.828-1.634,5.653-3.268,8.481-4.901c0.029,9.67,0.062,19.347,0.094,29.02
		c0,3.889-0.442,8.648,1.037,11.117c1.625,2.714,5.823,5.196,9.796,3.296c10.206-5.905,20.412-11.811,30.618-17.712
		c0.029,2.796,0.062,5.592,0.094,8.385c-5.747,3.265-11.494,6.534-17.241,9.799c0.533,0.972,1.068,1.947,1.604,2.922
		c5.211-2.857,10.422-5.718,15.637-8.575c0,2.954,0,5.905,0,8.856c-2.764,1.695-5.527,3.391-8.291,5.088
		c0.533,0.943,1.068,1.883,1.601,2.828c2.231-1.224,4.459-2.453,6.69-3.677c-0.032,2.263-0.064,4.521-0.094,6.78
		c-0.641,0.996-1.794,1.37-2.263,2.642c-1.147,3.12,1.572,6.464,4.711,5.937c4.708-0.796,5.255-6.698,1.13-8.578
		c-0.029-0.094-0.064-0.188-0.094-0.277c0-2.229,0-4.462,0-6.69c2.69,0.51,4.365,3.426,7.067,3.864
		c0.501-0.881,1.001-1.762,1.505-2.641c0-0.126,0-0.252,0-0.374c-2.825-1.698-5.65-3.396-8.479-5.089
		c-0.029-2.951-0.064-5.908-0.094-8.859c5.305,2.922,10.612,5.844,15.921,8.766c0.564-1.007,1.13-2.012,1.692-3.016
		c-5.776-3.203-11.556-6.406-17.329-9.608c-0.812-1.399-0.308-7.431-0.284-9.612c8.288,4.711,16.579,9.422,24.868,14.133
		c2.685,1.607,6.511,5.252,11.116,3.958c6.459-1.821,5.747-7.539,5.747-15.64c0-9.047,0-18.094,0-27.135
		c2.919,1.631,5.841,3.268,8.76,4.901c-0.094,6.716-0.188,13.441-0.281,20.16c1.163,0.029,2.325,0.059,3.484,0.094
		c0.094-6.031,0.188-12.062,0.284-18.088c2.541,1.411,5.085,2.822,7.63,4.239c0.661,1.452,0.31,7.981,0.283,10.084
		c1.131,0.029,2.261,0.059,3.391,0.087c0-2.635,0-5.275,0-7.91c1.979,1.098,3.958,2.195,5.935,3.297
		c0.501,1.276,0.305,2.699,1.13,3.768c1.786,2.315,5.908,1.613,7.255-0.565C183.696,142.935,178.619,137.946,175.051,140.839z
		 M101.667,52.843c1.798-1.569,4.315-2.424,6.405-3.674c5.637-3.364,11.413-6.526,17.146-9.893c2.204-1.294,6.036-4.248,8.288-3.39
		c1.722,0.656,3.575,1.3,4.617,2.635c2.699,3.466,1.602,17.801,1.602,24.5c-0.032,3.923-0.062,7.852-0.094,11.778
		c-0.735,1.215-5.87,3.569-7.349,4.424c0.032-6.716,0.062-13.441,0.094-20.161c0-2.887,0-5.779,0-8.666c-1.13,0-2.261,0-3.391,0
		c-0.097,10.265-0.188,20.541-0.284,30.806c-0.094,0.097-0.188,0.193-0.281,0.287c-8.855-5.059-17.712-10.112-26.565-15.171
		c-0.029-0.064-0.062-0.123-0.094-0.188c8.947-5.275,17.899-10.551,26.847-15.827c-0.532-1.007-1.065-2.008-1.602-3.016
		c-6.215,3.607-12.434,7.22-18.649,10.833c-1.61,0.987-4.825,3.578-6.689,3.865C101.667,58.938,101.667,55.89,101.667,52.843z
		 M117.304,93.918c1.174,0.311,8.273,4.386,8.666,5.188c0,0.969,0,1.944,0,2.919c-1.76,1.355-6.915,4.811-9.044,5.369
		c0.41-1.414,0.817-2.825,1.227-4.239C118.841,99.932,118.033,96.313,117.304,93.918z M118.621,108.432
		c-0.029-0.064-0.062-0.126-0.094-0.19c2.419-1.44,4.837-2.89,7.255-4.333c0.094,0,0.188,0,0.281,0c0,2.893,0,5.779,0,8.669
		C123.584,111.192,121.104,109.811,118.621,108.432z M124.368,115.777c-2.887,1.637-5.776,3.268-8.666,4.9c0-3.296,0-6.593,0-9.893
		c2.857,1.602,5.715,3.206,8.572,4.808C124.307,115.654,124.339,115.719,124.368,115.777z M117.116,92.227
		c-0.032-0.064-0.064-0.129-0.094-0.188c2.951-1.728,5.902-3.455,8.854-5.182c0.683,0.955,0.211,8.549,0.188,10.361
		C123.08,95.555,120.097,93.889,117.116,92.227z M115.702,88.643c0-3.265,0-6.529,0-9.796c2.796,1.569,5.589,3.145,8.385,4.711
		c0.062,0.096,0.123,0.19,0.188,0.284C121.417,85.443,118.56,87.044,115.702,88.643z M114.385,88.458c-0.032,0-0.064,0-0.097,0
		c-3.177-2.457-5.993-6.233-11.491-6.315c0-0.029,0-0.059,0-0.094c1.886-1.93,6.096-3.484,8.572-4.898
		C115.734,77.166,114.47,84.199,114.385,88.458z M101.667,70.842c1.461,0.264,7.601,4,8.854,4.989
		c-2.887,1.698-5.776,3.391-8.666,5.088C101.187,79.985,101.646,72.611,101.667,70.842z M60.594,54.728
		c-0.609-1.505,0.067-4.169-0.094-5.56c-0.659-5.68,0.665-11.928,7.064-12.247c3.545-0.175,6.315,2.776,8.95,4.24
		c4.562,2.529,9.515,5.176,14.036,7.82c2.512,1.476,5.024,2.954,7.539,4.427c0.062,0.097,0.123,0.19,0.188,0.284
		c0,2.7,0,5.402,0,8.104c-2.181-0.457-5.527-3.167-7.445-4.339c-5.809-3.387-11.617-6.78-17.426-10.171
		c-0.565,0.911-1.13,1.821-1.695,2.732c0,0.096,0,0.187,0,0.284c6.467,3.83,12.938,7.659,19.405,11.494
		c1.335,0.811,6.719,3.262,7.161,4.427c-8.795,5.056-17.587,10.112-26.379,15.171c-0.064-0.035-0.123-0.064-0.187-0.096
		c-0.094-10.268-0.19-20.541-0.284-30.809c-1.16-0.032-2.322-0.064-3.484-0.094c0.064,9.418,0.123,18.843,0.187,28.264
		c0,0.155,0,0.313,0,0.469c-2.479-1.379-4.962-2.764-7.439-4.146c-0.761-1.235-0.284-10.797-0.284-13.187
		C60.406,60.818,60.655,54.877,60.594,54.728z M89.42,76.118c-0.062,0-0.126,0-0.187,0c2.887-1.728,5.776-3.461,8.666-5.188
		c0.125,0,0.251,0,0.377,0c0,3.425,0,6.851,0,10.271C95.325,79.508,92.371,77.81,89.42,76.118z M96.959,82.144
		c-0.943,0.251-1.885,0.503-2.828,0.755c-2.811,1.089-6.655,3.124-7.914,5.745c-0.126,0.093-0.252,0.19-0.378,0.284
		c-0.53-1.288-0.173-9.237,0.19-9.986c0.389-0.802,1.089-1.001,1.882-1.411C89.622,77.535,95.975,81.186,96.959,82.144z
		 M84.238,110.882c0.656,0.913,0.211,8.063,0.188,9.796c-2.793-1.569-5.589-3.138-8.382-4.713c-0.032-0.059-0.064-0.123-0.094-0.188
		C78.713,114.144,81.474,112.513,84.238,110.882z M74.064,112.671c0-3.048,0-6.093,0-9.141c2.609,1.446,5.214,2.89,7.82,4.336
		c0.064,0.094,0.125,0.188,0.187,0.281C81.056,108.99,75.288,112.463,74.064,112.671z M83.579,107.302
		c-0.96-0.255-8.982-4.998-9.328-5.561c-0.395-0.646-0.17-2.207-0.094-3.015c2.559-1.95,6.722-3.303,8.95-5.463
		c0.094,0,0.188,0,0.284,0c-1.306,4.638-1.851,9.451,0.187,13.942C83.579,107.237,83.579,107.27,83.579,107.302z M74.064,96.84
		c0-3.361,0-6.719,0-10.077c2.922,1.631,5.841,3.262,8.763,4.895C82.517,92.344,75.145,96.574,74.064,96.84z M76.14,83.935
		c-0.032-0.123-0.064-0.252-0.096-0.377c2.731-1.566,5.466-3.142,8.194-4.711c0.536,0.603,0.211,8.212,0.188,9.703
		C81.665,87.009,78.901,85.475,76.14,83.935z M58.052,121.998c-8.16-4.71-16.29-9.465-24.306-14.322
		c-1.54-0.875-3.077-1.76-4.617-2.638c-1.871-1.81-2.647-5.217-1.602-7.82c1.396-3.475,5.402-4.5,8.385-6.403
		c7.471-4.368,14.946-8.736,22.42-13.099c1.505,0.298,6.909,3.627,8.195,4.614c-8.447,4.84-16.893,9.676-25.34,14.51
		c0.504,0.911,1.004,1.821,1.508,2.735c1.221,0.181,6.251-3.291,7.536-4.052c6.625-3.674,13.251-7.349,19.874-11.026
		c0,10.209,0,20.418,0,30.624c-0.029,0.029-0.059,0.064-0.091,0.094c-2.017-0.193-5.077-2.743-6.784-3.674
		c-6.812-3.804-13.628-7.604-20.441-11.401c-0.536,0.975-1.068,1.947-1.602,2.918c8.259,4.679,16.519,9.357,24.774,14.036
		c0.062,0.097,0.126,0.193,0.19,0.287C63.451,118.919,60.749,120.462,58.052,121.998z M73.312,152.617
		c8.321-4.834,16.645-9.671,24.965-14.508c0,3.326,0,6.658,0,9.987c-2.231,1.32-4.459,2.638-6.69,3.955
		c-5.533,3.247-10.997,6.429-16.673,9.421c-3.095,1.634-6.274,4.761-9.986,2.922c-1.502-0.743-3.452-2.444-4.049-4.052
		c-1.004-2.699-0.471-7.551-0.471-12.149c0-7.823,0-15.646,0-23.463c2.544-1.476,5.085-2.951,7.63-4.427
		c-0.029,9.731-0.064,19.469-0.094,29.207c1.098,0,2.199,0,3.296,0c0.158-10.458,0.313-20.916,0.472-31.374
		c2.058,0.357,5.366,2.978,7.161,4.052c6.371,3.643,12.747,7.284,19.121,10.927c0.187,0.299,0.254,0.322,0.284,0.849
		c-8.824,5.183-17.648,10.364-26.473,15.547c-0.029,0.091-0.062,0.185-0.093,0.28C72.243,150.734,72.779,151.677,73.312,152.617z
		 M85.746,111.069c0.72,0.784,1.446,1.569,2.167,2.354c2.644,2.126,5.814,4.277,10.177,4.62c0.029,0.059,0.062,0.123,0.094,0.188
		c-2.951,1.728-5.905,3.455-8.856,5.182c-1.109-0.175-2.863-1.224-3.487-1.979C85.81,117.979,85.778,114.524,85.746,111.069z
		 M98.276,128.688c-2.512-1.414-5.027-2.828-7.536-4.239c-0.032-0.064-0.064-0.129-0.096-0.193c2.482-1.44,4.962-2.887,7.445-4.333
		C98.593,120.496,98.297,127.301,98.276,128.688z M101.383,116.157c-1.807,0.287-3.674-0.21-4.992-0.564
		c-7.855-2.117-15.283-10.918-11.21-21.293c1.698-4.33,5.176-7.817,9.609-9.421c1.332-0.486,2.945-0.293,4.43-0.849
		c9.905-0.064,15.224,5.439,16.861,13.661c0.58,2.91-0.006,6.389-0.942,8.481C112.646,111.717,108.359,115.042,101.383,116.157z
		 M114.101,121.715c-0.91,0.503-1.821,1.007-2.731,1.508c-2.919-1.602-5.841-3.206-8.763-4.805
		c-0.059-0.094-0.123-0.188-0.188-0.281c0-0.035,0-0.064,0-0.094c4.878-0.679,9.7-3.016,11.775-6.502
		C114.578,111.962,114.42,121.313,114.101,121.715z M101.761,119.454c2.67,1.508,5.34,3.016,8.007,4.521
		c-0.494,1.071-6.555,4.022-7.913,4.808C101.447,128.214,101.485,120.45,101.761,119.454z M138.781,160.155
		c-1.215,1.874-3.101,2.969-5.085,3.578c-3.215,0.986-7.747-2.822-9.516-3.861c-7.475-4.208-14.948-8.418-22.42-12.628
		c-0.029-0.094-0.064-0.188-0.094-0.281c0-3.013,0-6.027,0-9.043c2.011,0.351,4.104,2.315,5.747,3.299
		c6.528,3.798,13.061,7.601,19.592,11.398c0.536-0.973,1.069-1.947,1.602-2.922c-8.886-5.244-17.773-10.487-26.656-15.731
		c-0.498-0.986,4.61-3.237,5.744-3.958c6.845-3.987,13.689-7.976,20.538-11.963c0.091,0,0.187,0,0.28,0
		c0.671,1.464,0.284,8.187,0.284,10.358c0.062,7.003,0.123,14.013,0.188,21.016c1.098,0.029,2.199,0.059,3.297,0.094
		c0.57-1.282,0.094-6.746,0.094-9.422c-0.062-6.593-0.126-13.192-0.188-19.785c2.418,1.347,4.837,2.699,7.252,4.049
		c0.714,1.168,0.284,9.389,0.284,11.591c0,5.428,0,10.864,0,16.299C139.725,155.278,139.845,158.516,138.781,160.155z
		 M143.021,122.282c-2.901-0.477-5.963-3.738-8.76-4.807c-0.032-0.062-0.063-0.126-0.096-0.188
		c8.323-4.711,16.644-9.422,24.964-14.133c-0.5-0.975-1.004-1.946-1.508-2.921c-1.446-0.009-5.609,3.009-7.064,3.862
		c-6.593,3.706-13.189,7.413-19.782,11.119c-0.188-0.029-0.378-0.064-0.565-0.094c-0.734-1.646-0.188-6.824-0.188-9.047
		c0-7.19,0-14.387,0-21.577c0.029-0.029,0.062-0.059,0.094-0.094c9.105,5.088,18.214,10.177,27.319,15.266
		c0.646-0.621,1.47-2.067,1.694-3.016c-8.414-4.711-16.831-9.422-25.245-14.129c0.491-1.241,5.677-3.279,6.971-4.339
		c3.449,1.593,6.528,4.011,9.796,5.75c5.709,3.036,10.965,6.005,16.299,9.421c1.153,0.738,2.424,1.054,3.484,1.883
		c1.938,1.511,3.439,5.033,2.356,7.633c-1.769,4.245-5.885,5.375-9.608,7.629C156.462,114.431,149.74,118.354,143.021,122.282z"/>
	<path fill-rule="evenodd" clip-rule="evenodd" fill="#FFFFFF" d="M79.624,126.896c6.64-0.22,6.833,7.858,1.317,8.859
		c-3.127,0.565-5.85-2.846-4.708-5.938C76.846,128.149,78.069,127.658,79.624,126.896z"/>
	<path fill-rule="evenodd" clip-rule="evenodd" fill="#FFFFFF" d="M118.434,128.214c5.727-0.006,6.201,7.806,1.227,8.859
		c-3.586,0.756-6.338-2.893-4.994-6.125C115.374,129.238,116.68,128.929,118.434,128.214z"/>
</g>
</svg>
