<?xml version="1.0" encoding="utf-8"?>
<!-- Generator: Adobe Illustrator 14.0.0, SVG Export Plug-In . SVG Version: 6.00 Build 43363)  -->
<!DOCTYPE svg PUBLIC "-//W3C//DTD SVG 1.1//EN" "http://www.w3.org/Graphics/SVG/1.1/DTD/svg11.dtd">
<svg version="1.1" id="Layer_1" xmlns="http://www.w3.org/2000/svg" xmlns:xlink="http://www.w3.org/1999/xlink" x="0px" y="0px"
	 width="200px" height="200px" viewBox="0 0 200 200" enable-background="new 0 0 200 200" xml:space="preserve">
<g>
	<path fill-rule="evenodd" clip-rule="evenodd" fill="#FFFFFF" d="M77.875,60.449c5.489-0.192,5.722,6.427,1.229,7.275
		c-2.56,0.484-4.843-2.114-4.017-4.741C75.55,61.512,76.616,61.145,77.875,60.449z"/>
	<path fill-rule="evenodd" clip-rule="evenodd" fill="#FFFFFF" d="M118.451,60.94c4.844-0.121,5.241,6.402,1.147,7.273
		c-3.04,0.646-5.178-2.374-4.18-4.985C115.952,61.835,117.053,61.512,118.451,60.94z"/>
	<path fill-rule="evenodd" clip-rule="evenodd" fill="#FFFFFF" d="M56.891,95.763c5.614-0.199,5.758,6.437,1.229,7.273
		c-2.45,0.452-4.688-2.09-4.017-4.497C54.554,96.934,55.562,96.499,56.891,95.763z"/>
	<path fill-rule="evenodd" clip-rule="evenodd" fill="#FFFFFF" d="M139.027,95.763c5.561-0.198,5.718,6.46,1.146,7.273
		c-2.468,0.438-4.745-2.155-3.934-4.741C136.69,96.858,137.745,96.393,139.027,95.763z"/>
	<path fill-rule="evenodd" clip-rule="evenodd" fill="#FFFFFF" d="M181.571,142.761c-1.622-1.787-3.447-0.267-4.754-0.898
		c-2.842-1.636-5.686-3.27-8.525-4.904c0-0.11,0-0.219,0-0.326c1.333-0.658,3.514-1.495,4.426-2.617
		c-0.628-1.389-1.257-2.778-1.887-4.168c-1.86,0.217-5.747,3.118-7.785,4.005c-1.312-0.735-2.623-1.471-3.936-2.207
		c-0.055-0.081-0.108-0.162-0.165-0.246c3.115-1.771,6.23-3.542,9.347-5.313c-0.573-1.388-1.148-2.778-1.723-4.168
		c-0.973-0.382-2.855,1.225-3.688,1.717c-3.005,1.635-6.012,3.271-9.017,4.904c-1.804-1.009-3.606-2.017-5.412-3.024
		c-0.053-0.081-0.106-0.164-0.162-0.245c0.777-0.994,2.656-1.47,3.771-2.124c3.496-1.989,6.995-3.978,10.492-5.968
		c-0.655-1.443-1.312-2.89-1.967-4.333c-5.792,3.188-11.587,6.377-17.377,9.565c-2.761-1.555-5.521-3.107-8.28-4.66
		c-0.056-0.083-0.109-0.164-0.164-0.245c6.939-3.896,13.88-7.792,20.821-11.688c-0.171-1.438-1.213-3.174-1.886-4.333
		c-1.854,0.272-4.875,2.58-6.477,3.514c-5.764,3.216-11.531,6.431-17.297,9.647c-0.135-0.027-0.272-0.056-0.409-0.082
		c-0.745-1.66-0.081-6.475-0.081-8.584c0.053-7.001,0.108-14.006,0.163-21.005c0.027-0.029,0.055-0.055,0.082-0.082
		c7.95,4.387,15.903,8.773,23.855,13.158c0.849-0.748,1.751-3.162,2.049-4.331c-6.941-3.869-13.882-7.738-20.821-11.607
		c0.307-0.805,7.092-4.431,8.279-4.985c1.552,0.287,3.013,1.556,4.263,2.287c3.194,1.745,6.395,3.488,9.59,5.23
		c1.06,0.619,2.354,1.766,3.689,1.962c0.628-1.332,1.257-2.668,1.886-4.004c-0.213-1.158-2.757-1.826-3.688-2.371
		c-3.526-1.988-7.051-3.977-10.574-5.967c1.829-1.116,3.659-2.233,5.491-3.351c4.182,2.287,8.361,4.578,12.542,6.866
		c0.027,0,0.056,0,0.082,0c0.657-1.417,1.312-2.833,1.968-4.251c-0.469-0.659-8.236-4.969-9.347-5.313
		c0.397-1.11,2.854-1.762,3.772-2.451c0.175-0.242,0.093-0.02,0-0.329c2.887,1.051,5.069,3.164,7.867,4.253
		c0.799-0.643,1.897-3.199,2.052-4.332c-0.757-0.876-3.209-2.201-4.429-2.453c0.271-0.798,1.382-0.974,2.049-1.39
		c2.325-1.362,4.647-2.726,6.97-4.086c0.657,0.026,1.312,0.054,1.967,0.081c1.075-0.262,2.1-1.063,2.542-1.962
		c2.619-5.313-6.922-7.5-6.969-1.717c-2.895,1.688-5.792,3.379-8.688,5.068c-0.027,0-0.056,0-0.081,0
		c-0.028-1.689-0.057-3.38-0.084-5.068c0-0.054,0-0.108,0-0.162c-1.583-0.138-3.168-0.273-4.754-0.408
		c-0.055,2.805-0.108,5.612-0.165,8.417c-0.436,0.745-3.224,2.037-4.098,2.533c-0.108,0-0.219,0-0.327,0
		c0.055-3.567,0.108-7.137,0.165-10.708c-1.531-0.19-3.062-0.38-4.593-0.571c-0.025,0-0.055,0-0.081,0
		c-0.312,0.691-0.023,1.853-0.164,2.779c-0.056,3.787-0.109,7.575-0.164,11.36c-1.144,0.835-4.371,3.107-5.819,3.271
		c0.054-5.42,0.11-10.844,0.164-16.267c-0.349-0.332-4.251-0.613-4.755-0.489c-0.108,6.564-0.219,13.133-0.327,19.699
		c-2.815,1.635-5.63,3.27-8.444,4.905c-0.027,0-0.055,0-0.082,0c0.11-7.957,0.219-15.914,0.328-23.867
		c-1.172-0.571-3.729-0.535-4.838-0.492c-0.135,9.073-0.271,18.147-0.408,27.22c-0.082,0.081-0.163,0.162-0.246,0.246
		c-1.614-0.216-5.566-3.106-7.051-4.005c-4.179-2.453-8.359-4.905-12.541-7.358c-1.7-1.014-4.945-2.273-6.148-3.678
		c7.813-4.685,15.631-9.374,23.445-14.06c-0.902-1.307-1.804-2.616-2.707-3.923c-6.855,4.061-13.715,8.119-20.573,12.179
		c-0.41-0.575-0.181-8.283-0.165-9.726c5.656-3.379,11.313-6.759,16.97-10.138c0-0.109,0-0.217,0-0.326
		c-0.876-1.228-1.75-2.452-2.623-3.68c-4.728,2.779-9.456,5.561-14.182,8.34c-0.479-0.665-0.183-5.305-0.165-6.541
		c4.043-2.396,8.09-4.795,12.133-7.191c-0.228-1.557-1.864-2.514-2.46-3.843c-0.136-0.054-0.273-0.108-0.408-0.163
		c-3.062,1.825-6.122,3.649-9.182,5.477c-0.263-1.062,0.427-3.897-0.247-4.66c0.99-1.112,5.848-3.996,7.377-4.577
		c0.057-0.081,0.11-0.163,0.165-0.246c-0.901-1.279-1.804-2.56-2.704-3.841c-1.57,0.38-3.228,1.771-4.509,2.616
		c-0.413-0.579-0.181-8.428-0.165-9.891c3.905-3.255-0.363-9.051-4.427-5.885c-1.121,0.874-1.674,3.227-0.736,4.74
		c0.301,0.381,0.602,0.763,0.901,1.145c-0.028,3.242-0.056,6.484-0.081,9.727c0,0.055,0,0.109,0,0.164
		c-1.531-0.872-3.061-1.745-4.59-2.616c-0.903,1.226-1.806,2.452-2.706,3.679c0,0.108,0,0.218,0,0.327
		c1.559,0.607,6.94,3.685,7.377,5.149c0,1.335,0,2.669,0,4.005c-0.587,0.18-1.742-0.858-2.376-1.226
		c-2.295-1.363-4.593-2.726-6.888-4.087c-0.108,0-0.218,0-0.327,0c-0.875,1.28-1.749,2.562-2.623,3.841
		c4.044,2.425,8.088,4.85,12.133,7.274c0,2.153,0,4.306,0,6.458c0,0.055,0,0.109,0,0.165c-4.729-2.779-9.456-5.561-14.182-8.34
		c-0.93,1.228-1.858,2.452-2.789,3.68c0,0.081,0,0.162,0,0.245c5.656,3.379,11.314,6.757,16.971,10.135c0,3.215,0,6.432,0,9.646
		c0,0.054,0,0.108,0,0.163c-6.888-4.06-13.771-8.118-20.659-12.179c-0.929,1.253-1.857,2.508-2.785,3.76c0,0.026,0,0.054,0,0.081
		c1.394,0.844,2.785,1.691,4.179,2.534c3.17,1.88,6.34,3.759,9.509,5.641c3.251,1.934,6.504,3.868,9.757,5.805
		c-0.295,0.955-5.123,3.104-6.23,3.759c-6.422,3.651-12.844,7.303-19.263,10.953c-0.11,0-0.22,0-0.33,0
		c-0.136-8.936-0.273-17.874-0.409-26.812c-0.082-0.054-0.163-0.109-0.246-0.163c-1.476,0.109-2.95,0.219-4.427,0.328
		c-0.441,0.766-0.304,5.488-0.081,6.946c0.081,5.64,0.163,11.281,0.245,16.922c-0.027,0.025-0.055,0.055-0.082,0.079
		c-2.814-1.579-5.628-3.158-8.442-4.739c-0.11-6.567-0.219-13.134-0.328-19.698c-1.062-0.478-3.652,0.074-4.754,0.244
		c-0.539,1.188-0.086,3.727-0.084,5.314c0.084,3.677,0.165,7.355,0.246,11.034c-0.108,0.026-0.218,0.054-0.327,0.08
		c-1.776-1.006-3.551-2.016-5.328-3.023c-0.307-0.673-0.058-1.829-0.165-2.534c-0.081-3.923-0.162-7.848-0.245-11.771
		c-1.53,0.137-3.06,0.273-4.591,0.411c-0.409,0.316-0.336,2.037-0.246,2.779c0.057,2.643,0.11,5.284,0.165,7.927
		c-0.027,0.027-0.055,0.054-0.082,0.081c-1.531-0.844-3.061-1.688-4.591-2.533c0.369-2.49,0.17-5.554,0.165-8.338
		c-1.393-0.363-3.206,0.216-4.673,0.246c-0.478,0.83-0.264,3.966-0.082,5.23c-0.082,0.029-0.163,0.054-0.247,0.083
		c-2.978-1.717-5.957-3.434-8.934-5.149c-1.006-5.103-8.242-4.054-7.38,0.651c0.284,1.537,1.399,2.763,2.87,3.108
		c0.766-0.055,1.531-0.108,2.296-0.165c3.004,1.771,6.011,3.543,9.016,5.316c0,0.024,0,0.054,0,0.078
		c-1.269,0.991-3.41,1.457-4.426,2.697c0.628,1.393,1.259,2.78,1.887,4.169c0.081,0.028,0.162,0.056,0.243,0.084
		c2.211-1.592,5.186-2.39,7.216-4.169c1.421,0.763,2.842,1.525,4.263,2.288c0.055,0.083,0.109,0.163,0.164,0.246
		c-0.725,0.827-7.819,4.675-9.099,5.067c-0.083,0.108-0.165,0.22-0.248,0.326c0.603,1.417,1.203,2.835,1.805,4.25
		c1.33-0.115,2.526-1.211,3.523-1.797c2.951-1.636,5.904-3.27,8.854-4.905c1.602,0.144,4.456,2.304,5.82,3.107
		c0,0.081,0,0.162,0,0.244c-4.754,2.644-9.51,5.287-14.263,7.928c0.628,1.444,1.256,2.889,1.884,4.332
		c1.769-0.257,3.581-1.866,5.002-2.697c4.098-2.259,8.197-4.522,12.296-6.782c1.42,0.194,7.361,3.88,8.607,4.822
		c0,0.028,0,0.056,0,0.082c-5.055,2.833-10.111,5.666-15.165,8.501c-1.854,1.087-4.196,1.845-5.738,3.269
		c0.655,1.418,1.311,2.835,1.968,4.25c7.841-4.331,15.683-8.663,23.526-12.995c0.637,0.904,0.081,6.4,0.081,7.846
		c-0.056,7.111-0.109,14.223-0.165,21.335c-1.655-0.188-3.441-1.766-4.753-2.534c-6.229-3.405-12.462-6.812-18.689-10.218
		c-0.657,1.417-1.312,2.834-1.968,4.251c6.911,3.868,13.826,7.738,20.738,11.607c0.027,0.054,0.055,0.108,0.083,0.163
		c-2.76,1.634-5.521,3.27-8.281,4.905c-5.819-3.188-11.639-6.377-17.46-9.565c-0.027,0-0.055,0-0.082,0
		c-0.655,1.418-1.311,2.834-1.967,4.252c1.425,1.381,3.742,2.075,5.491,3.104c2.924,1.636,5.85,3.271,8.773,4.905
		c-0.29,0.948-4.431,2.685-5.412,3.433c-3.251-1.743-6.502-3.489-9.754-5.231c-0.845-0.499-1.825-1.436-2.951-1.553
		c-0.628,1.416-1.258,2.835-1.887,4.25c1.436,1.619,8.726,4.101,9.346,5.56c-1.393,0.79-2.786,1.58-4.179,2.369
		c-2.371-1.087-5.225-2.526-7.297-4.086c-0.084-0.027-0.165-0.055-0.246-0.081c-0.683,1.443-1.367,2.888-2.049,4.332
		c1.475,0.815,2.952,1.636,4.425,2.45c0.029,0.057,0.057,0.11,0.082,0.165c0,0.054,0,0.107,0,0.163
		c-2.978,1.717-5.955,3.434-8.935,5.15c-0.409-0.109-0.818-0.219-1.229-0.329c-1.072-0.177-2.15,0.392-2.706,0.82
		c-1.136,0.872-1.764,3.188-0.819,4.739c0.817,1.342,3.312,2.419,5.165,1.225c1.187-0.763,1.008-2.118,1.803-2.86
		c0.688-0.64,8.171-4.872,9.018-4.986c0,1.663,0,3.326,0,4.986c0.225,0.327,4.21,0.732,4.754,0.573
		c0.083-2.86,0.164-5.722,0.245-8.581c1.396-0.79,2.789-1.582,4.181-2.372c0.029,0,0.057,0,0.083,0
		c-0.026,3.543-0.054,7.084-0.083,10.626c0.295,0.408,3.912,0.657,4.673,0.654c0.344-0.752,0.009-2.029,0.164-3.023
		c0.056-3.707,0.11-7.413,0.164-11.117c1.225-0.856,4.32-3.052,5.82-3.271c-0.081,5.449-0.165,10.899-0.246,16.349
		c1.503,0.189,3.007,0.382,4.509,0.573c0.778-0.58,0.41-3.867,0.41-5.56c0.082-4.768,0.163-9.537,0.245-14.305
		c1.722-0.981,3.442-1.961,5.164-2.942c1.005-0.601,2.106-1.614,3.361-1.88c-0.108,7.927-0.22,15.859-0.328,23.786
		c1.189,0.59,3.551,0.558,4.756,0.572c0.163-8.935,0.327-17.875,0.49-26.811c8.36,4.849,16.723,9.7,25.085,14.55
		c0.055,0.081,0.108,0.163,0.164,0.245c-5.604,3.379-11.204,6.757-16.805,10.135c-1.481,0.9-5.101,2.39-5.983,3.678
		c0.9,1.254,1.802,2.509,2.704,3.762c2.145-0.475,4.358-2.507,6.148-3.597c4.835-2.861,9.672-5.721,14.508-8.584
		c0.027,0,0.056,0,0.084,0c0,3.216,0,6.432,0,9.646c-0.585,1.008-3.784,2.334-4.92,3.023c-4.017,2.425-8.033,4.852-12.051,7.275
		c0.375,1.402,1.914,2.766,2.707,3.925c4.754-2.781,9.509-5.56,14.264-8.338c0,2.205,0,4.413,0,6.62
		c-4.045,2.397-8.089,4.797-12.133,7.193c0.847,1.281,1.694,2.562,2.541,3.843c0.11,0.026,0.22,0.054,0.328,0.081
		c3.06-1.799,6.121-3.598,9.18-5.396c0.027,0,0.056,0,0.084,0c0.025,1.58,0.053,3.161,0.081,4.741
		c-0.854,1.196-5.84,3.586-7.377,4.577c0.847,1.28,1.693,2.562,2.541,3.842c0.874,0.123,3.812-1.995,4.671-2.532
		c0.238,0.525,0.427,9.32,0.165,10.216c-0.327,0.408-0.656,0.818-0.983,1.225c-0.942,1.589-0.16,3.841,0.902,4.662
		c4.068,3.14,8.425-3.177,4.343-5.887c0-3.379,0-6.759,0-10.135c1.531,0.845,3.062,1.688,4.593,2.532
		c0.928-1.279,1.857-2.56,2.785-3.842c-0.328-0.387-7.207-4.608-7.623-4.658c0.081-0.082,0.163-0.163,0.245-0.244
		c0-1.5,0-2.998,0-4.497c1.144,0.225,2.2,1.241,3.115,1.798c2.021,1.199,4.044,2.399,6.065,3.598c0.11,0,0.219,0,0.327,0
		c0.876-1.226,1.751-2.452,2.625-3.679c-0.27-0.921-2.014-1.409-2.787-1.88c-3.061-1.825-6.122-3.652-9.181-5.478
		c-0.674-1.472-0.188-4.779-0.165-6.62c0.056-0.027,0.11-0.055,0.165-0.081c4.699,2.778,9.399,5.557,14.1,8.338
		c0.9-1.2,1.802-2.399,2.705-3.599c0-0.107,0-0.216,0-0.326c-5.656-3.379-11.313-6.759-16.97-10.136c0-3.243,0-6.485,0-9.726
		c0.056-0.027,0.11-0.057,0.165-0.084c6.83,4.06,13.662,8.121,20.492,12.181c0.931-1.281,1.859-2.562,2.788-3.843
		c-1.037-1.268-5.548-3.389-7.214-4.332c-5.3-3.16-10.603-6.321-15.902-9.481c-0.056-0.082-0.109-0.163-0.164-0.244
		c8.579-4.85,17.16-9.701,25.739-14.55c0.163,8.907,0.328,17.819,0.49,26.728c1.145,0.496,2.958-0.393,4.264-0.162
		c0.996-0.451,0.727-4.247,0.574-5.886c-0.109-6.021-0.218-12.044-0.328-18.064c0.082-0.027,0.165-0.055,0.247-0.082
		c2.758,1.58,5.519,3.162,8.279,4.739c0.108,6.596,0.219,13.189,0.327,19.782c0.766,0.254,3.655,0.064,4.591-0.327
		c0.081-0.027,0.164-0.054,0.246-0.081c-0.082-5.395-0.165-10.79-0.246-16.184c0.054-0.056,0.11-0.11,0.164-0.165
		c1.83,1.009,3.661,2.016,5.492,3.024c0.358,0.794,0.001,2.147,0.163,3.188c0.083,3.678,0.164,7.356,0.246,11.034
		c0.436,0.383,3.78-0.2,4.672-0.244c0.4-0.867,0.144-9.797-0.081-10.628c0.027-0.054,0.055-0.109,0.081-0.162
		c0.084-0.028,0.165-0.054,0.246-0.082c1.285,0.735,2.569,1.472,3.854,2.207c0.462,2.42,0.427,5.971,0.408,8.746
		c1.559-0.108,3.115-0.219,4.673-0.327c0.487-1.018,0.135-3.709,0.081-5.15c0.109-0.025,0.219-0.054,0.329-0.082
		c2.979,1.69,5.958,3.38,8.935,5.069c0.852,0.717,0.556,2.219,2.213,3.024c2.101,1.02,4.284-0.5,4.92-1.798
		C183.023,145.468,182.299,143.563,181.571,142.761z M114.271,79.087c2.731,1.551,5.464,3.106,8.196,4.657
		c0.027,0.057,0.054,0.109,0.083,0.163c-2.679,1.555-5.356,3.107-8.033,4.66c-0.027,0-0.056,0-0.081,0
		C113.952,86.782,113.979,80.779,114.271,79.087z M108.696,75.653c0.027,0.054,0.057,0.107,0.081,0.164
		c-2.293,1.415-4.591,2.832-6.884,4.25c-0.083,0.025-0.164,0.054-0.246,0.081c-0.027-2.832-0.055-5.669-0.083-8.501
		C103.943,72.981,106.319,74.316,108.696,75.653z M96.976,71.566c0.243,0.105,0.098-0.006,0.246,0.163c0,3.241,0,6.485,0,9.728
		c-2.869-1.555-5.74-3.107-8.607-4.66c-0.056-0.081-0.109-0.162-0.164-0.245C91.292,74.89,94.134,73.228,96.976,71.566z
		 M75.663,83.663c2.566-1.47,5.138-2.941,7.704-4.413c0.245,0.104,0.1-0.003,0.247,0.162c0.082,2.999,0.163,5.996,0.244,8.991
		c-0.054,0.027-0.109,0.055-0.162,0.083c-2.678-1.525-5.356-3.051-8.033-4.579C75.663,83.828,75.663,83.744,75.663,83.663z
		 M73.53,87.261c2.677,1.524,5.356,3.051,8.033,4.576c0,0.026,0,0.054,0,0.083c-0.913,0.874-2.142,1.295-3.28,1.961
		c-1.56,0.915-3.104,2.244-4.834,2.942c-0.029,0-0.057,0-0.083,0C73.156,96.038,73.242,87.888,73.53,87.261z M73.12,112.517
		c0.054-3.104,0.11-6.211,0.164-9.317c2.704,1.444,5.411,2.887,8.117,4.331c0.054,0.082,0.108,0.165,0.162,0.246
		c-2.758,1.608-5.519,3.215-8.279,4.823C73.23,112.573,73.174,112.544,73.12,112.517z M84.187,120.938
		c-0.081,0.054-0.164,0.108-0.245,0.162c-1.342-1.175-7.938-4.133-8.362-5.231c2.761-1.579,5.521-3.159,8.279-4.741
		c0.027,0,0.056,0,0.083,0C84.29,111.61,84.193,120.206,84.187,120.938z M97.548,128.864c-0.053,0.028-0.108,0.057-0.163,0.082
		c-2.487-1.442-4.973-2.889-7.459-4.333c-0.083-0.105-0.165-0.216-0.247-0.325c2.541-1.554,5.083-3.106,7.624-4.66
		c0.027,0,0.056,0,0.082,0C97.988,120.474,97.568,127.26,97.548,128.864z M109.762,123.715c-2.677,1.499-5.355,2.998-8.032,4.496
		c-0.373-0.517-0.341-8.298-0.082-9.235c2.704,1.471,5.41,2.941,8.114,4.413C109.762,123.499,109.762,123.607,109.762,123.715z
		 M111.072,118.976c-1.241,1.104-2.709,0.23-3.77-0.328c-2.485-1.388-4.974-2.779-7.46-4.17c-3.059,1.882-6.12,3.762-9.179,5.642
		c-0.947,0.561-2.391,0.461-3.034-0.327c-1.141-1.389-0.629-9.51-0.573-12.424c-2.705-1.525-5.412-3.052-8.116-4.577
		c-0.868-0.515-1.948-0.776-2.459-1.635c-0.577-0.969-0.062-2.372,0.573-2.861c3.169-1.825,6.34-3.651,9.509-5.477
		c1.394-2.418-0.852-8.049,0.246-10.789c0.374-0.935,1.71-1.736,3.033-1.227c2.789,1.608,5.574,3.216,8.361,4.822
		c1.446-0.113,2.732-1.465,3.771-2.124c2.184-1.391,4.39-2.548,6.721-3.762c1.147-0.007,1.777,0.307,2.214,0.982
		c0.854,1.317,0.443,9.981,0.409,12.178c2.146,1.282,10.319,4.737,10.821,6.866c0.428,1.821-1.373,2.38-2.296,2.944
		c-2.759,1.634-5.52,3.27-8.279,4.902C111.107,110.152,112.747,117.488,111.072,118.976z M114.764,120.773
		c-0.028-3.242-0.056-6.486-0.084-9.729c2.87,1.636,5.739,3.271,8.608,4.905C122.567,116.715,115.881,120.507,114.764,120.773z
		 M124.928,111.7c-0.027,0.027-0.054,0.055-0.083,0.081c-2.35-1.307-4.699-2.615-7.049-3.922c-0.027-0.056-0.055-0.11-0.082-0.164
		c2.322-1.417,4.646-2.834,6.968-4.252c0.243,0.107,0.097-0.003,0.246,0.165C124.928,106.306,124.928,109.003,124.928,111.7z
		 M125.01,94.371c0,0.846,0,1.689,0,2.533c-2.912-0.493-5.48-3.621-8.362-4.413c0-0.027,0-0.055,0-0.082
		c2.761-1.636,5.521-3.27,8.28-4.905C125.222,87.833,125.208,93.672,125.01,94.371z"/>
	<path fill-rule="evenodd" clip-rule="evenodd" fill="#FFFFFF" d="M78.04,131.563c5.088-0.172,5.439,6.395,1.229,7.274
		c-2.538,0.529-4.895-1.802-4.263-4.415C75.429,132.677,76.557,132.279,78.04,131.563z"/>
	<path fill-rule="evenodd" clip-rule="evenodd" fill="#FFFFFF" d="M119.927,132.626c5.125-0.168,5.469,6.386,1.23,7.274
		c-2.7,0.566-5.003-1.983-4.264-4.577C117.353,133.717,118.47,133.268,119.927,132.626z"/>
</g>
</svg>
