<?xml version="1.0" encoding="utf-8"?>
<!-- Generator: Adobe Illustrator 14.0.0, SVG Export Plug-In . SVG Version: 6.00 Build 43363)  -->
<!DOCTYPE svg PUBLIC "-//W3C//DTD SVG 1.1//EN" "http://www.w3.org/Graphics/SVG/1.1/DTD/svg11.dtd">
<svg version="1.1" id="Layer_1" xmlns="http://www.w3.org/2000/svg" xmlns:xlink="http://www.w3.org/1999/xlink" x="0px" y="0px"
	 width="200px" height="200px" viewBox="0 0 200 200" enable-background="new 0 0 200 200" xml:space="preserve">
<path fill-rule="evenodd" clip-rule="evenodd" fill="#FFFFFF" d="M166.657,133.525c-1.566-0.766-3.323,0.366-4.348,0.111
	c-1.263-0.744-2.528-1.486-3.791-2.23c-0.037-0.075-0.073-0.148-0.112-0.224c2.9-1.672,5.799-3.345,8.696-5.017
	c0.038-0.074,0.076-0.148,0.112-0.224c-1.561-0.892-3.121-1.783-4.682-2.676c-2.974,1.747-5.948,3.494-8.92,5.241
	c-2.379-1.339-4.757-2.676-7.137-4.015c0-0.038,0-0.073,0-0.111c2.899-1.708,5.799-3.419,8.697-5.129c0-0.036,0-0.074,0-0.11
	c-1.524-0.93-3.049-1.858-4.571-2.787c-2.415,1.41-4.831,2.823-7.247,4.236c-0.037-2.787-0.074-5.575-0.111-8.362
	c-1.561-0.929-3.121-1.858-4.682-2.787c-0.039,3.419-0.076,6.839-0.112,10.257c-1.896-1.04-3.792-2.081-5.687-3.121
	c0-4.535,0-9.07,0-13.602c2.563,1.895,5.129,3.789,7.693,5.685c4.014-2.935,8.027-5.872,12.042-8.808c0.073,0,0.147,0,0.222,0
	c-3.977-2.972-7.954-5.946-11.929-8.92c-2.957,0.769-4.863,4.039-7.583,5.241c-0.111,0.111-0.222,0.223-0.334,0.334
	c-0.037-4.422-0.073-8.846-0.111-13.268c1.895-1.078,3.791-2.155,5.687-3.233c0.036,3.456,0.073,6.913,0.112,10.368
	c1.484-0.892,2.973-1.783,4.459-2.675c0.546-0.613,0.25-7.046,0.223-8.474c2.453,1.412,4.906,2.825,7.358,4.236
	c1.486-0.854,2.974-1.709,4.46-2.564c0.037-0.074,0.074-0.148,0.111-0.223c-2.861-1.709-5.724-3.419-8.585-5.128
	c-0.074,0-0.148,0-0.222,0c2.34-1.413,4.681-2.825,7.023-4.237c2.973,1.709,5.945,3.419,8.919,5.128
	c1.928-0.351,3.147-1.955,4.905-2.564c-2.898-1.709-5.799-3.419-8.696-5.128c-0.037-0.074-0.073-0.149-0.112-0.223
	c1.414-0.781,2.826-1.562,4.236-2.342c1.164,0.135,2.444,0.836,3.902,0.223c2.404-1.009,5.529-6.714,6.802-9.142
	c-1.077,0-2.155,0-3.233,0c-4.195-0.097-9.761,0.065-9.922,4.794c-1.375,0.78-2.751,1.562-4.126,2.342
	c-0.036-3.382-0.073-6.764-0.112-10.146c-0.073-0.037-0.148-0.074-0.222-0.112c-1.45,0.892-2.899,1.784-4.349,2.676
	c-0.777,0.87-0.043,8.911-0.223,10.034c0.035,0.553-5.963,3.937-7.023,4.46c-0.076-3.419-0.149-6.838-0.224-10.257
	c-1.561,0.892-3.122,1.783-4.683,2.675c0,2.824,0,5.649,0,8.474c-2.415-1.413-4.832-2.825-7.248-4.237
	c-1.522,0.892-3.047,1.785-4.569,2.676c-0.075,0-0.149,0-0.224,0c2.936,1.709,5.872,3.419,8.808,5.129
	c0.038,0.074,0.073,0.148,0.112,0.223c-1.859,1.078-3.717,2.156-5.575,3.233c-3.938-2.192-7.88-4.385-11.819-6.578
	c0-0.037,0-0.074,0-0.112c2.861-1.3,5.725-2.602,8.586-3.902c0.427-0.563-0.11-3.068-0.224-4.125
	c-0.407-3.642-0.817-7.284-1.227-10.926c-4.569,2.007-9.144,4.014-13.713,6.021c0.334,3.232,0.669,6.466,1.003,9.699
	c-3.752-2.118-7.507-4.237-11.261-6.355c-0.689-1.5-0.253-4.854-0.222-6.801c2.973,1.672,5.945,3.345,8.919,5.018
	c0.036-1.784,0.074-3.568,0.111-5.352c-2.379-1.412-4.757-2.824-7.136-4.236c-0.074-0.038-0.148-0.075-0.223-0.112
	c2.452-1.375,4.905-2.75,7.358-4.125c0-1.821,0-3.643,0-5.464c-2.973,1.673-5.947,3.346-8.919,5.018
	c-0.037-2.75-0.076-5.5-0.111-8.25c3.01-1.709,6.02-3.42,9.03-5.129c0-1.82,0-3.641,0-5.462c-2.973,1.672-5.947,3.345-8.919,5.017
	c-0.037,0-0.076,0-0.111,0c0-1.597,0-3.195,0-4.794c0.658-1.12,1.842-1.192,2.229-3.122c0.505-2.519-3.409-9.338-4.572-10.703
	c-1.258,2.368-7.411,11.376-2.565,13.602c0.512,1.1,0.254,3.518,0.224,5.017c-2.973-1.672-5.947-3.344-8.919-5.017
	c-0.038,1.783-0.074,3.567-0.11,5.352c2.936,1.673,5.871,3.345,8.806,5.017c0.859,1.879,0.254,6.104,0.224,8.473
	c-2.973-1.671-5.947-3.345-8.919-5.018c-0.038,1.785-0.074,3.569-0.11,5.352c2.378,1.413,4.756,2.825,7.134,4.237
	c0.076,0.037,0.149,0.074,0.224,0.112c-2.452,1.374-4.906,2.75-7.357,4.125c0,1.821,0,3.643,0,5.463
	c2.972-1.673,5.946-3.345,8.919-5.018c0.036,2.193,0.072,4.386,0.11,6.579c-3.938,2.266-7.88,4.534-11.817,6.801
	c0.372-3.158,0.744-6.318,1.115-9.477c-0.916-0.916-12.183-5.853-13.826-6.132c-0.52,4.979-1.04,9.96-1.561,14.94
	c2.936,1.263,5.872,2.526,8.808,3.79c0,0.037,0,0.074,0,0.112c-3.827,2.155-7.657,4.311-11.483,6.466
	c-1.784-1.003-3.568-2.007-5.351-3.011c-0.076-0.11-0.15-0.223-0.224-0.334c2.897-1.672,5.798-3.345,8.696-5.018
	c0.037-0.074,0.075-0.148,0.112-0.223c-1.561-0.891-3.123-1.784-4.682-2.676c-2.416,1.412-4.833,2.824-7.247,4.237
	c0-2.824,0-5.649,0-8.474c-1.6-0.892-3.197-1.784-4.795-2.675c0,3.419,0,6.838,0,10.257c-2.342-1.338-4.684-2.676-7.025-4.014
	c-0.601-0.679-0.248-8.728-0.222-10.369c-1.561-0.929-3.123-1.858-4.682-2.787c-0.038,3.419-0.076,6.839-0.113,10.258
	c-1.374-0.743-2.75-1.487-4.125-2.23c-1-5.45-7.43-5.14-13.157-5.017c0.54,2.327,4.979,8.567,7.025,9.365
	c1.522,0.594,2.455-0.198,3.566-0.334c1.415,0.78,2.825,1.562,4.238,2.342c-2.899,1.709-5.798,3.418-8.697,5.127
	c0,0.038,0,0.075,0,0.112c1.562,0.929,3.123,1.858,4.683,2.788c2.899-1.747,5.798-3.493,8.696-5.24
	c2.454,1.337,4.907,2.675,7.36,4.013c0,0.075,0,0.148,0,0.224c-2.937,1.671-5.874,3.345-8.809,5.017c0,0.074,0,0.148,0,0.223
	c1.487,0.854,2.973,1.709,4.46,2.564c2.917-0.539,4.773-3.389,7.581-4.125c-0.037,2.787-0.073,5.575-0.11,8.362
	c1.597,0.892,3.196,1.784,4.793,2.676c0-3.381,0-6.764,0-10.146c1.896,1.041,3.792,2.082,5.687,3.122c0,4.571,0,9.143,0,13.714
	c-2.528-1.821-5.055-3.643-7.583-5.464c-0.726-0.351-2.396,1.49-3.121,2.007c-2.973,2.118-5.947,4.237-8.919,6.355
	c-0.074,0.111-0.148,0.224-0.224,0.335c1.149,1.255,10.847,8.47,12.264,8.808c2.527-1.857,5.055-3.716,7.583-5.574
	c0,4.384,0,8.771,0,13.156c-1.858,1.04-3.717,2.081-5.575,3.121c-0.036-3.27-0.074-6.541-0.112-9.812
	c-0.037-0.147-0.074-0.298-0.11-0.445c-1.562,0.892-3.123,1.784-4.683,2.675c0,2.826,0,5.65,0,8.475
	c-2.416-1.413-4.832-2.826-7.247-4.236c-1.525,0.854-3.049,1.708-4.572,2.563c-0.036,0.073-0.074,0.148-0.112,0.224
	c2.899,1.672,5.798,3.345,8.696,5.017c0.038,0.075,0.076,0.148,0.113,0.223c-2.379,1.374-4.759,2.751-7.137,4.126
	c-3.009-1.747-6.02-3.494-9.03-5.241c-1.486,0.893-2.973,1.784-4.459,2.676c-0.076,0-0.149,0-0.224,0
	c2.897,1.747,5.798,3.494,8.696,5.24c0.076,0,0.148,0,0.224,0c-1.449,0.817-2.899,1.637-4.35,2.454
	c-0.968-0.078-2.395-0.734-3.678-0.224c-2.503,0.997-5.664,6.636-6.913,9.144c0,0.035,0,0.073,0,0.109
	c5.875,0.09,12.693,0.574,13.157-5.018c1.375-0.779,2.751-1.561,4.125-2.34c0.038,3.42,0.075,6.838,0.113,10.257
	c1.486-0.854,2.973-1.71,4.459-2.563c0.601-0.68,0.249-8.729,0.222-10.37c2.378-1.411,4.757-2.823,7.135-4.236
	c0.038,3.456,0.076,6.913,0.112,10.368c1.522-0.854,3.047-1.709,4.571-2.563c0.524-1.171,0.135-5.869,0.11-8.585
	c2.379,1.376,4.759,2.75,7.137,4.125c1.919-0.348,3.145-1.955,4.906-2.563c-2.899-1.746-5.798-3.494-8.697-5.241
	c-0.073,0-0.148,0-0.222,0c1.895-1.115,3.79-2.229,5.686-3.344c3.938,2.304,7.88,4.608,11.817,6.912
	c-2.936,1.264-5.871,2.528-8.806,3.791c0.52,4.979,1.039,9.96,1.559,14.939c4.571-1.97,9.143-3.939,13.714-5.908
	c-0.297-3.232-0.593-6.467-0.893-9.701c3.717,2.119,7.435,4.238,11.149,6.355c0.68,1.476,0.254,4.77,0.224,6.69
	c-2.973-1.673-5.947-3.345-8.919-5.018c-0.038,1.783-0.074,3.567-0.11,5.352c2.378,1.412,4.756,2.825,7.134,4.235
	c0.076,0.038,0.149,0.076,0.224,0.112c-2.452,1.374-4.906,2.751-7.357,4.126c0,1.82,0,3.643,0,5.463
	c2.972-1.673,5.946-3.346,8.919-5.018c0.036,2.75,0.072,5.5,0.11,8.25c-3.01,1.711-6.021,3.421-9.03,5.129c0,1.821,0,3.643,0,5.463
	c2.972-1.672,5.946-3.344,8.919-5.017c0.036,1.599,0.072,3.196,0.11,4.795c-5.232,3.362,1.007,10.258,2.229,13.713
	c0.076,0.038,0.148,0.073,0.224,0.112c1.824-4.361,6.928-9.086,2.452-13.825c-0.606-0.667-0.259-3.644-0.222-4.795
	c2.973,1.673,5.945,3.345,8.919,5.017c0.036-1.782,0.074-3.568,0.111-5.351c-2.937-1.673-5.872-3.345-8.809-5.017
	c-0.859-1.881-0.253-6.104-0.222-8.475c2.973,1.672,5.945,3.345,8.919,5.018c0.036-1.785,0.074-3.568,0.111-5.352
	c-2.379-1.412-4.757-2.824-7.136-4.237c-0.074-0.036-0.148-0.074-0.223-0.112c2.452-1.374,4.905-2.749,7.358-4.123
	c0-1.821,0-3.643,0-5.464c-2.973,1.673-5.947,3.345-8.919,5.018c-0.037-2.155-0.076-4.312-0.111-6.468
	c3.938-2.266,7.879-4.533,11.818-6.801c-0.336,3.232-0.67,6.467-1.005,9.699c4.571,2.008,9.144,4.016,13.714,6.021
	c0.558-4.941,1.115-9.887,1.674-14.828c-2.937-1.339-5.873-2.676-8.809-4.014c3.827-2.23,7.656-4.461,11.483-6.689
	c1.82,1.076,3.642,2.155,5.463,3.232c-2.897,1.71-5.798,3.42-8.696,5.129c0,0.038,0,0.074,0,0.111
	c1.486,0.892,2.973,1.785,4.46,2.676c2.539-0.502,5.218-2.862,7.358-4.125c0.037,2.824,0.074,5.649,0.111,8.473
	c1.523,0.855,3.048,1.711,4.57,2.565c0.074-3.382,0.15-6.765,0.225-10.146c2.415,1.337,4.831,2.675,7.246,4.014
	c-0.037,3.455-0.074,6.912-0.111,10.368c1.598,0.892,3.197,1.784,4.793,2.676c0-3.382,0-6.764,0-10.146
	c1.339,0.707,2.678,1.412,4.015,2.119c0.505,1.077,0.555,2.263,1.227,3.121c1.903,2.432,7.923,2.074,12.152,2.006
	C172.096,140.176,169.016,134.676,166.657,133.525z M140.457,94.836c2.155,1.523,4.311,3.048,6.467,4.571
	c0.11,0.149,0.223,0.298,0.334,0.446c-2.266,1.598-4.533,3.196-6.801,4.795c-2.156-1.561-4.312-3.123-6.467-4.684
	c-0.037-0.074-0.074-0.148-0.111-0.223C136.07,98.107,138.265,96.471,140.457,94.836z M58.286,104.871
	c-0.599,0.303-5.441-3.904-6.69-4.46c-0.036-0.074-0.072-0.148-0.11-0.223c2.155-1.635,4.312-3.271,6.466-4.906
	c2.192,1.523,4.386,3.047,6.579,4.571c0.073,0.111,0.148,0.224,0.222,0.335C62.598,101.75,60.443,103.311,58.286,104.871z
	 M124.402,82.795c-1.153,0.595-2.305,1.189-3.457,1.784c-1.041-1.896-2.082-3.791-3.121-5.686
	C120.016,80.193,122.21,81.495,124.402,82.795z M122.953,58.378c0.842,0.899,0.715,6.523,1.115,8.139
	c-2.527,1.152-5.055,2.305-7.583,3.457c-0.333-2.75-0.669-5.5-1.003-8.251C117.973,60.608,120.463,59.493,122.953,58.378z
	 M101.658,69.64c2.154,1.188,4.31,2.378,6.465,3.567c0.039,0.074,0.075,0.149,0.112,0.223c-2.192,0-4.386,0-6.577,0
	C101.658,72.167,101.658,70.902,101.658,69.64z M96.864,69.64c0.036,1.263,0.072,2.527,0.11,3.79c-2.192,0-4.384,0-6.578,0
	C92.553,72.167,94.707,70.902,96.864,69.64z M74.453,66.963c-0.619-2.475,0.624-5.691,0.67-8.362
	c2.488,1.041,4.979,2.082,7.469,3.122c0.771,1.894-0.51,6.036-0.669,8.362C79.433,69.045,76.944,68.004,74.453,66.963z
	 M80.698,78.894c0.091,1.667-2.423,3.939-3.011,5.686c-1.077-0.557-2.155-1.115-3.234-1.673c-0.037-0.074-0.073-0.148-0.11-0.223
	C76.46,81.42,78.578,80.157,80.698,78.894z M75.01,88.481c0.209,0.554-2.462,5.111-3.121,5.909c0,0.074,0,0.148,0,0.223
	c-0.038-2.639-0.074-5.277-0.11-7.916C72.855,87.292,73.933,87.887,75.01,88.481z M71.778,105.316
	c1.115,1.934,2.23,3.865,3.345,5.798c-1.079,0.632-2.157,1.263-3.234,1.896C71.851,110.445,71.814,107.881,71.778,105.316z
	 M74.342,117.246c-0.076,0-0.148,0-0.224,0c1.077-0.668,2.156-1.338,3.234-2.006c0.755,0.449,3.139,4.775,3.455,5.797
	C78.654,119.773,76.497,118.51,74.342,117.246z M75.681,141.551c-0.623-0.833-1.005-6.661-1.005-8.138
	c2.454-1.151,4.907-2.304,7.359-3.457c0.667,0.694,0.964,6.71,1.115,8.14C80.66,139.248,78.169,140.4,75.681,141.551z
	 M96.975,130.291c-2.154-1.188-4.312-2.379-6.466-3.567c-0.038-0.075-0.075-0.148-0.112-0.224c2.194,0,4.386,0,6.578,0
	C96.975,127.765,96.975,129.027,96.975,130.291z M101.77,130.291c-0.037-1.264-0.076-2.526-0.111-3.791c2.191,0,4.385,0,6.577,0
	C106.08,127.765,103.924,129.027,101.77,130.291z M112.138,121.706c-8.51,0.038-17.021,0.074-25.531,0.112
	c-4.198-7.321-8.4-14.645-12.598-21.965c4.198-7.246,8.4-14.495,12.598-21.741c8.472,0,16.947,0,25.419,0
	c4.2,7.284,8.4,14.57,12.6,21.853C120.463,107.211,116.3,114.461,112.138,121.706z M124.402,133.079
	c-0.298,2.749-0.596,5.501-0.892,8.25c-2.528-1.077-5.056-2.155-7.583-3.233c0.26-2.751,0.521-5.5,0.781-8.251
	C119.273,130.924,121.838,132,124.402,133.079z M117.824,121.037c1.077-1.933,2.156-3.865,3.232-5.797
	c1.115,0.594,2.23,1.189,3.346,1.783c0.037,0.075,0.073,0.148,0.111,0.223C122.283,118.51,120.055,119.773,117.824,121.037z
	 M123.511,111.227c1.077-1.971,2.154-3.94,3.232-5.91c0.036,2.564,0.075,5.129,0.112,7.693
	C125.74,112.415,124.624,111.82,123.511,111.227z M126.743,94.613c-1.114-1.969-2.229-3.939-3.345-5.909
	c1.115-0.668,2.23-1.338,3.345-2.006c0.036,2.638,0.075,5.277,0.112,7.916C126.818,94.613,126.779,94.613,126.743,94.613z"/>
</svg>
